/* XPM */
static char *result[] = {
/* columns rows colors chars-per-pixel */
"27 27 169 2 ",
"   c #3B1805",
".  c #361408",
"X  c #3C180C",
"o  c #2E1916",
"O  c #321311",
"+  c #3A1D15",
"@  c #3F2313",
"#  c #3E2520",
"$  c #55310F",
"%  c #422112",
"&  c #482110",
"*  c #4A2A17",
"=  c #45261A",
"-  c #462B1C",
";  c #4D2B1C",
":  c #502D17",
">  c #522E1B",
",  c #4D301E",
"<  c #593513",
"1  c #54311E",
"2  c #5B341A",
"3  c #60361D",
"4  c #63391F",
"5  c #462B23",
"6  c #4B2E27",
"7  c #422D28",
"8  c #522F23",
"9  c #4D3225",
"0  c #48342B",
"q  c #553323",
"w  c #5A3624",
"e  c #553924",
"r  c #5D3A26",
"t  c #55342A",
"y  c #59352B",
"u  c #56392E",
"i  c #5C3A2B",
"p  c #4D3B3C",
"a  c #513534",
"s  c #523A36",
"d  c #5A3C33",
"f  c #543D3A",
"g  c #5C3F39",
"h  c #643D25",
"j  c #613D2A",
"k  c #623F33",
"l  c #5C4134",
"z  c #594338",
"x  c #64422D",
"c  c #6B462A",
"v  c #644233",
"b  c #6A4631",
"n  c #64453A",
"m  c #69473B",
"M  c #6A4B3A",
"N  c #6D4A34",
"B  c #764C34",
"V  c #7A5436",
"C  c #77523F",
"Z  c #79533C",
"A  c #644542",
"S  c #624944",
"D  c #704C40",
"F  c #7F5640",
"G  c #7F5A48",
"H  c #7E5F5A",
"J  c #7D605C",
"K  c #83593F",
"L  c #825D49",
"P  c #815D51",
"I  c #856247",
"U  c #8C6844",
"Y  c #85614A",
"T  c #8B654C",
"R  c #8E6A4B",
"E  c #8A6344",
"W  c #91674F",
"Q  c #926D4E",
"!  c #97734F",
"~  c #846154",
"^  c #8A6552",
"/  c #8E6A51",
"(  c #85655D",
")  c #8C6B5C",
"_  c #936D54",
"`  c #986E56",
"'  c #926D5B",
"]  c #996F59",
"[  c #957255",
"{  c #997455",
"}  c #9D7955",
"|  c #96725A",
" . c #9B755B",
".. c #9E7A5E",
"X. c #A27D5A",
"o. c #826665",
"O. c #8F6D61",
"+. c #876F6B",
"@. c #8A6D6A",
"#. c #936F61",
"$. c #8D746D",
"%. c #947264",
"&. c #997461",
"*. c #9C786C",
"=. c #927571",
"-. c #977977",
";. c #A07761",
":. c #A17C64",
">. c #A17C6B",
",. c #AA875F",
"<. c #A68362",
"1. c #AC8465",
"2. c #AD8965",
"3. c #A5826A",
"4. c #AC866B",
"5. c #AD896A",
"6. c #B38D6D",
"7. c #B6926E",
"8. c #A4887C",
"9. c #AB8673",
"0. c #B28D72",
"q. c #B99575",
"w. c #BE9A75",
"e. c #C19B77",
"r. c #C49E7A",
"t. c #C8A57D",
"y. c #9A8280",
"u. c #C9A683",
"i. c #CEA883",
"p. c #CDA88C",
"a. c #D0AD85",
"s. c #D2AC89",
"d. c #D5B582",
"f. c #D6B38D",
"g. c #DBB58D",
"h. c #DCBA8D",
"j. c #D6AF92",
"k. c #D6B293",
"l. c #DAB692",
"z. c #DDBB93",
"x. c #DFB69B",
"c. c #DEBA9A",
"v. c #E2BC8D",
"b. c #E1BE94",
"n. c #E8BF93",
"m. c #E2BE9A",
"M. c #E5BEA1",
"N. c #E3C08D",
"B. c #E3C194",
"V. c #EAC594",
"C. c #E5C29A",
"Z. c #E9C59C",
"A. c #ECCA9D",
"S. c #F1CC9F",
"D. c #E6C1A2",
"F. c #E9C4A2",
"G. c #EDCAA3",
"H. c #EDCAAB",
"J. c #F2CDA1",
"K. c #F1CFAC",
"L. c #F3DBD9",
"P. c #F6E3E5",
"I. c #FCE5E2",
"U. c #FEEBE4",
"Y. c #FEECEA",
"T. c #FFF0EA",
"R. c #FFEFF0",
"E. c #FFF5F0",
"W. c #FFF9F3",
/* pixels */
"d.V.N.h.z.b.A.b.h.B.C.C.B.N.h.V.B.B.B.C.B.C.C.C.b.C.b.",
"G.S.B.B.Z.z.z.h.B.B.N.B.B.V.V.n.A.C.B.z.z.C.C.m.l.C.Z.",
"f.f.z.C.m.m.x.K.A.B.z.B.n.Z.b.b.l.B.C.C.C.b.C.D.C.C.C.",
"F.H.G.k.q.0.4.j.h.c.C.C.C.Z.m.b.C.Z.C.f.q.5.q.u.G.Z.l.",
"c.D.4.L 2 h h W e.f.F.F.m.z.m.C.F.l.q.R c < w c w.C.c.",
"D.c.V 2 2 K L ;.6.s.M.D.c.x.M.D.M.p.9.| I Z c 2 V k.G.",
"D.x.2 3 B W ` ;.K ` { { [ [ { [ ..[ _ ` .._ C h $ f.G.",
"M.M.h K _ ` ` ` ` X.[ I T [ / I R _ '  . .' ^ G < c.D.",
"D.z.U Q | :.^ _ ` > > : h * x e w 2 ' ) :.' { [ U z.F.",
"d.z.,.{ Y | ^ i & > k j j ; 5 e w i > q L L | [ <.m.C.",
"J.z.w.[ ..' X 8 k j y . i u @ q e % n 8 > 9.&.[ q.h.l.",
"h.b.c.c.&.i d A O.P k a u d t n = 8.( t v   Y H.m.G.m.",
"V.S.C.R v n O @.-.=.H z + 9 d - @.=.+.H n e b R l.G.C.",
"g.g.<.3.i 6 A o.+.z T.0 d z t u W.o y.o.t e , 3.2.f.z.",
"Z.m.{ ^ % 6 S L.f # T.- z - @ l Y.p f I.5 n , | <.z.F.",
"n.D.I 3.l z @ p U.Y.0 z 0 - M * p P.R.a a t x / Q z.c.",
"F.k...T | D 1 x i 1 q e v * e q y t j q ; B _ [ ! z.G.",
"C.f.2./  .Y r 1 y 8 i ~ %.%.) O.k t > 8 k L { [ ,.z.A.",
"C.c.u.,.[ | I v = m %.%.y y q O.P m 8 j / &. .[ t.C.C.",
"b.Z.C.q.Q _ .._ *.~ P k 8 D ; q #.#.L T | {  .5.z.A.B.",
"n.n.Z.s.X.!  .` %.&.*.w % w 8 i ^ >.:.| Q U 2.z.C.C.b.",
"V.v.V.m.i.7.X.E ^ ~ &.j w i h w | ` T W <.7.a.G.V.B.B.",
"V.v.n.S.m.v.r.1.:. .| R _ _ [ ' ;.` { 1.t.z.A.h.B.B.C.",
"N.v.v.v.n.Z.F.b.p.0.T :.| _ / .._ 4.j.m.f.z.A.b.b.h.B.",
"N.V.b.B.B.B.B.z.N.z.h.h.h.h.h.h.b.B.b.B.B.B.B.B.B.B.B.",
"V.b.B.B.B.B.B.B.B.B.B.B.h.B.z.N.b.b.B.B.B.B.B.B.B.B.B.",
"B.B.B.B.B.B.B.b.B.B.B.B.B.B.B.B.B.N.b.B.B.B.B.B.B.B.B."
};
